<?xml version="1.0" encoding="UTF-8"?>
<svg id="Layer_2" data-name="Layer 2" xmlns="http://www.w3.org/2000/svg" viewBox="0 0 231.18 287.62">
  <defs>
    <style>
      .cls-1 {
        fill: #126796;
      }

      .cls-1, .cls-2 {
        stroke-width: 0px;
      }

      .cls-2 {
        fill: #fff;
      }
    </style>
  </defs>
  <g id="Layer_2-2" data-name="Layer 2">
    <g>
      <path class="cls-2" d="M227.21,243.66l-74.61-129.22V16.01h4.56c4.4,0,8-3.6,8-8s-3.6-8-8-8h-84.84c-4.4,0-8,3.6-8,8s3.6,8,8,8h4.57v101.36L3.97,243.66c-5.29,9.18-5.29,20.13,0,29.3,5.3,9.18,14.78,14.66,25.38,14.66h172.49c10.58,0,20.07-5.48,25.38-14.66,5.29-9.18,5.29-20.13,0-29.3ZM201.83,275.35H29.34c-13.1,0-21.3-14.19-14.74-25.55l65.83-114.03,7.9-13.68V16.01h52.82v103.16l9.59,16.59,65.83,114.03c6.56,11.36-1.64,25.55-14.74,25.55Z"/>
      <path class="cls-1" d="M191.08,245.73l-45.5-78.81h-61.68l-45.5,78.81c-2.82,4.89.71,11.01,6.35,11.01h139.97c5.65,0,9.18-6.11,6.35-11.01Z"/>
    </g>
  </g>
</svg>