<?xml version="1.0" encoding="UTF-8"?>
<svg id="Layer_2" data-name="Layer 2" xmlns="http://www.w3.org/2000/svg" viewBox="0 0 207.82 296.74">
  <defs>
    <style>
      .cls-1 {
        fill: #c6aa06;
      }

      .cls-1, .cls-2 {
        stroke-width: 0px;
      }

      .cls-2 {
        fill: #fff;
      }
    </style>
  </defs>
  <g id="Layer_2-2" data-name="Layer 2">
    <g>
      <g>
        <path class="cls-2" d="M197.91,0H9.91C4.46,0,0,4.46,0,9.91v15.75c0,5.45,4.46,9.91,9.91,9.91h3.94c-.58,2.62-.9,5.34-.9,8.13v215.44c0,20.73,16.87,37.6,37.6,37.6h106.71c20.73,0,37.6-16.87,37.6-37.6V43.7c0-2.79-.32-5.51-.9-8.13h3.94c5.45,0,9.91-4.46,9.91-9.91v-15.75c0-5.45-4.46-9.91-9.91-9.91ZM183.18,43.7v215.44c0,14.31-11.6,25.91-25.91,25.91H50.56c-14.31,0-25.91-11.6-25.91-25.91V43.7c0-2.84.47-5.57,1.32-8.13h155.89c.85,2.56,1.32,5.29,1.32,8.13Z"/>
        <g>
          <rect class="cls-2" x="140.33" y="44.72" width="37.77" height="8.81" rx="4.4" ry="4.4"/>
          <rect class="cls-2" x="150.32" y="64.42" width="27.78" height="8.81" rx="4.4" ry="4.4"/>
          <rect class="cls-2" x="150.32" y="103.83" width="27.78" height="8.81" rx="4.4" ry="4.4"/>
          <rect class="cls-2" x="140.33" y="84.12" width="37.77" height="8.81" rx="4.4" ry="4.4"/>
        </g>
      </g>
      <path class="cls-1" d="M48.48,129.74h110.86v113.59c0,9.85-8,17.85-17.85,17.85h-75.16c-9.85,0-17.85-8-17.85-17.85v-113.59h0Z"/>
    </g>
  </g>
</svg>