<?xml version="1.0" encoding="UTF-8"?>
<svg id="Layer_2" data-name="Layer 2" xmlns="http://www.w3.org/2000/svg" xmlns:xlink="http://www.w3.org/1999/xlink" viewBox="0 0 164.88 293.18">
  <defs>
    <style>
      .cls-1 {
        fill: #ba4219;
      }

      .cls-1, .cls-2, .cls-3 {
        stroke-width: 0px;
      }

      .cls-2 {
        fill: none;
      }

      .cls-4 {
        clip-path: url(#clippath);
      }

      .cls-3 {
        fill: #fff;
      }
    </style>
    <clipPath id="clippath">
      <rect class="cls-2" x="19.8" y="171.37" width="122.87" height="100.43"/>
    </clipPath>
  </defs>
  <g id="Layer_2-2" data-name="Layer 2">
    <g>
      <path class="cls-3" d="M110.76,133.31V21.06h11.39c4.79,0,8.68-3.89,8.68-8.68v-3.69c0-4.79-3.89-8.68-8.68-8.68H42.73c-4.79,0-8.68,3.89-8.68,8.68v3.69c0,4.79,3.89,8.68,8.68,8.68h9.73v112.89C21.18,146.15,0,176.58,0,210.74c0,45.46,36.98,82.44,82.44,82.44s82.44-36.98,82.44-82.44c0-35.03-21.85-65.7-54.12-77.44ZM82.44,281.85c-39.27,0-71.11-31.84-71.11-71.11,0-32.82,22.23-60.42,52.45-68.62V21.06h35.65v120.64c31.06,7.62,54.12,35.64,54.12,69.05,0,39.27-31.84,71.11-71.11,71.11Z"/>
      <g class="cls-4">
        <circle class="cls-1" cx="82.44" cy="210.66" r="58.92"/>
      </g>
    </g>
  </g>
</svg>