<?xml version="1.0" encoding="UTF-8"?>
<svg id="Layer_2" data-name="Layer 2" xmlns="http://www.w3.org/2000/svg" viewBox="0 0 218.47 275.25">
  <defs>
    <style>
      .cls-1 {
        fill: #6cd147;
      }

      .cls-1, .cls-2 {
        stroke-width: 0px;
      }

      .cls-2 {
        fill: #fff;
      }
    </style>
  </defs>
  <g id="Layer_2-2" data-name="Layer 2">
    <g>
      <path class="cls-2" d="M143.36,62.25V16.72h8.06c4.6,0,8.36-3.76,8.36-8.36h0c0-4.6-3.76-8.36-8.36-8.36h-87.15c-4.6,0-8.36,3.76-8.36,8.36h0c0,4.6,3.76,8.36,8.36,8.36h8.06v46.49C30.2,78.37,0,118.73,0,166.02c0,60.23,49.01,109.23,109.23,109.23s109.23-49.01,109.23-109.23c0-48.31-31.53-89.41-75.1-103.77ZM109.23,264.35c-54.3,0-98.33-44.02-98.33-98.33,0-41.25,25.42-76.58,61.43-91.17,3.11-1.25,6.29-2.36,9.54-3.3V16.72h51.94v54.06c3.26.85,6.44,1.84,9.54,3,37.48,13.87,64.2,49.93,64.2,92.23,0,54.31-44.02,98.33-98.33,98.33Z"/>
      <path class="cls-1" d="M170.81,117.38H44.88c-9.88,13.15-15.74,29.51-15.74,47.22,0,43.47,35.24,78.7,78.7,78.7s78.7-35.24,78.7-78.7c0-17.72-5.86-34.07-15.74-47.22Z"/>
    </g>
  </g>
</svg>