<?xml version="1.0" encoding="UTF-8"?>
<svg id="Layer_2" data-name="Layer 2" xmlns="http://www.w3.org/2000/svg" viewBox="0 0 116.35 165.65">
  <defs>
    <style>
      .cls-1 {
        fill: #fff;
        stroke-width: 0px;
      }
    </style>
  </defs>
  <g id="Layer_2-2" data-name="Layer 2">
    <g>
      <path class="cls-1" d="M32.31,10.77h-4.24c-1.2,0-2.17.97-2.17,2.17s.97,2.17,2.17,2.17h4.24c1.2,0,2.17-.97,2.17-2.17s-.97-2.17-2.17-2.17Z"/>
      <path class="cls-1" d="M113.94,109.83v-53.64c1.32-.93,2.41-2.25,2.41-4.07,0-1.46-1.03-2.67-2.41-2.95v-31.2c1.22-1.15,2.17-2.69,2.17-4.72,0-4.77-5.24-6.83-6.96-7.51-2.98-1.17-7.14-2.21-12.36-3.08-10.35-1.72-24.06-2.67-38.61-2.67S29.91.95,19.56,2.67c-5.22.87-9.38,1.9-12.36,3.08C5.48,6.42.24,8.48.24,13.26c0,2.03.95,3.57,2.17,4.72v31.2c-1.37.28-2.41,1.49-2.41,2.95,0,1.83,1.09,3.14,2.41,4.07v53.64c-1.37.28-2.41,1.49-2.41,2.95,0,1.83,1.09,3.14,2.41,4.07v37.71c0,2.58,1.99,5.86,17.51,8.44,10.24,1.7,23.82,2.64,38.25,2.64s28.02-.94,38.25-2.64c15.52-2.58,17.51-5.87,17.51-8.44v-37.71c1.32-.93,2.41-2.25,2.41-4.07,0-1.46-1.03-2.67-2.41-2.95ZM6.91,13.26c.72-.66,3.77-2.65,15.35-4.42,9.8-1.5,22.56-2.32,35.92-2.32s26.11.82,35.92,2.32c11.58,1.77,14.63,3.76,15.35,4.42-.72.66-3.77,2.65-15.35,4.42-9.8,1.5-22.56,2.32-35.92,2.32s-26.11-.82-35.92-2.32c-11.58-1.77-14.63-3.76-15.35-4.42ZM109.6,154.4c-.32.39-2.68,2.62-15.51,4.59-9.8,1.5-22.56,2.32-35.92,2.32s-26.11-.82-35.92-2.32c-12.83-1.96-15.19-4.2-15.51-4.59v-35.55c2.93.96,6.95,1.81,11.99,2.53,10.56,1.52,24.56,2.36,39.44,2.36s28.88-.84,39.44-2.36c5.03-.72,9.06-1.58,11.99-2.53v35.55ZM109.6,112.45c-4.55,2.13-21.65,5.27-51.42,5.27s-46.88-3.14-51.42-5.27v-54.27c2.93.96,6.95,1.81,11.99,2.53,10.56,1.52,24.56,2.36,39.44,2.36s28.88-.84,39.44-2.36c5.03-.72,9.06-1.58,11.99-2.53v54.27ZM58.17,57.06c-29.77,0-46.88-3.14-51.42-5.27v-31.21c.17.07.32.13.45.18,2.98,1.17,7.14,2.21,12.36,3.08,10.35,1.72,24.06,2.67,38.61,2.67s28.26-.95,38.61-2.67c5.22-.87,9.38-1.9,12.36-3.08.13-.05.28-.11.45-.18v31.21c-4.55,2.13-21.65,5.27-51.42,5.27Z"/>
    </g>
  </g>
</svg>