<?xml version="1.0" encoding="UTF-8"?>
<svg id="Layer_2" data-name="Layer 2" xmlns="http://www.w3.org/2000/svg" viewBox="0 0 67.72 67.72">
  <defs>
    <style>
      .cls-1 {
        fill: #fff;
        stroke-width: 0px;
      }
    </style>
  </defs>
  <g id="Layer_2-2" data-name="Layer 2">
    <g>
      <path class="cls-1" d="M33.86,67.72c-1.11,0-2.15-.43-2.93-1.21L1.21,36.79c-1.62-1.62-1.62-4.24,0-5.86L30.93,1.21c.78-.78,1.82-1.21,2.93-1.21s2.15.43,2.93,1.21l29.72,29.72c.78.78,1.21,1.82,1.21,2.93s-.43,2.15-1.21,2.93l-29.72,29.72c-.78.78-1.82,1.21-2.93,1.21ZM33.86,3.23c-.24,0-.47.1-.64.27L3.5,33.22c-.35.35-.35.93,0,1.29l29.72,29.72c.34.34.94.34,1.29,0l29.72-29.72c.17-.17.27-.4.27-.64s-.09-.47-.27-.64L34.5,3.5c-.17-.17-.4-.27-.64-.27Z"/>
      <g>
        <path class="cls-1" d="M35.06,38.63c-.94,0-1.87,0-2.81,0-.19,0-.49-.03-.55-.15-.29-.56-.79-.43-1.26-.46-.18,0-.45,0-.51-.11-.31-.58-.87-.46-1.36-.54-.51-.08-.76-.42-.77-.93-.01-.62.02-1.25-.03-1.87-.02-.22-.17-.49-.34-.62-1.22-.84-1.65-1.97-1.35-3.41.04-.2.02-.45-.06-.63-1.52-3.1-.36-6.85,3.13-8.86,3.61-2.07,8.27-1.54,11.13,1.25,2.11,2.06,2.65,4.88,1.47,7.59-.09.22-.1.5-.06.74.22,1.38-.17,2.49-1.34,3.32-.19.13-.34.43-.37.66-.06.6,0,1.21-.06,1.81-.06.72-.37,1-1.09,1.01-.37,0-.66.04-.92.39-.14.19-.58.18-.88.22-.35.04-.65-.03-.92.36-.16.23-.67.23-1.02.33,0-.04-.02-.08-.03-.12ZM27.8,29.54c0,1.33,1.09,2.43,2.41,2.44,1.31,0,2.42-1.11,2.42-2.43,0-1.34-1.07-2.42-2.42-2.42-1.35,0-2.42,1.06-2.42,2.41ZM37.45,31.9c1.34,0,2.4-1.02,2.41-2.33.01-1.31-1.04-2.38-2.36-2.39-1.31-.01-2.4,1.04-2.42,2.34-.02,1.3,1.04,2.37,2.37,2.38ZM33.65,30.74c-.14.11-.37.22-.49.4-.25.36-.47.75-.68,1.14-.34.63-.2,1.45.36,1.91.12.09.35.06.52.07.34,0,.68,0,1.02-.03.18-.02.4-.04.51-.15.17-.16.28-.39.37-.61.23-.57-.48-2.3-1.05-2.57-.14-.07-.31-.08-.56-.15Z"/>
        <path class="cls-1" d="M37.54,41.84c1.01.38,2.02.75,3.03,1.13.21.08.43.13.62.23.93.48,1.82.43,2.76-.04.83-.41,1.3-.3,1.69.19.44.56.43,1.22-.13,1.73-.52.48-.76.98-.59,1.7.13.6-.23,1.08-.83,1.3-.59.22-1.13.13-1.36-.5-.59-1.62-1.95-2.09-3.38-2.56-1.71-.57-3.4-1.24-5.1-1.84-.27-.1-.64-.1-.91,0-2.26.79-4.51,1.6-6.74,2.46-.39.15-.73.53-1.02.87-.25.3-.39.7-.6,1.04-.29.48-.7.7-1.27.52-.57-.18-.92-.55-.85-1.15.1-.8-.09-1.43-.71-1.99-.48-.43-.45-.94-.1-1.47.33-.5.79-.57,1.32-.4.04.01.08.02.11.04,1.24.77,2.43.46,3.67-.08,1.02-.45,2.1-.78,3.31-1.22-.31-.15-.45-.23-.61-.29-1.32-.49-2.65-.95-3.97-1.46-.53-.2-1.01-.18-1.52.03-.35.15-.71.29-1.07.41-.52.17-.95.04-1.26-.43-.32-.49-.38-1.03.08-1.43.67-.58.85-1.25.75-2.09-.07-.59.32-.91.85-1.08.52-.17.9.01,1.2.43.06.08.13.16.16.25.43,1.28,1.44,1.81,2.65,2.2,1.89.61,3.74,1.36,5.62,2.02.26.09.6.1.86.01,2.27-.81,4.53-1.66,6.8-2.46.58-.2.96-.54,1.21-1.09.14-.31.32-.61.51-.89.37-.56.8-.7,1.39-.48.59.22.95.72.81,1.32-.17.73.09,1.23.61,1.7.52.47.56,1.01.21,1.58-.32.53-.83.78-1.46.43-1.34-.75-2.57-.42-3.85.13-.94.4-1.92.72-2.88,1.08,0,.05,0,.1-.01.14Z"/>
      </g>
    </g>
  </g>
</svg>