<?xml version="1.0" encoding="UTF-8"?>
<svg id="Layer_2" data-name="Layer 2" xmlns="http://www.w3.org/2000/svg" viewBox="0 0 134.01 166.73">
  <defs>
    <style>
      .cls-1 {
        fill: #0091f4;
      }

      .cls-1, .cls-2 {
        stroke-width: 0px;
      }

      .cls-2 {
        fill: #fff;
      }
    </style>
  </defs>
  <g id="Layer_2-2" data-name="Layer 2">
    <g>
      <path class="cls-2" d="M131.71,141.25l-43.25-74.91V9.28h2.65c2.55,0,4.64-2.09,4.64-4.64s-2.09-4.64-4.64-4.64h-49.18c-2.55,0-4.64,2.09-4.64,4.64s2.09,4.64,4.64,4.64h2.65v58.76L2.3,141.25c-3.07,5.32-3.07,11.67,0,16.99,3.07,5.32,8.57,8.5,14.71,8.5h99.99c6.13,0,11.64-3.18,14.71-8.5,3.07-5.32,3.07-11.67,0-16.99ZM117,159.62H17.01c-7.6,0-12.35-8.23-8.54-14.81l38.16-66.11,4.58-7.93V9.28h30.62v59.8l5.56,9.62,38.16,66.11c3.8,6.58-.95,14.81-8.54,14.81Z"/>
      <path class="cls-1" d="M110.77,142.45l-26.38-45.69h-35.76l-26.38,45.69c-1.64,2.84.41,6.38,3.68,6.38h81.14c3.27,0,5.32-3.54,3.68-6.38Z"/>
    </g>
  </g>
</svg>