<?xml version="1.0" encoding="UTF-8"?>
<svg id="Layer_2" data-name="Layer 2" xmlns="http://www.w3.org/2000/svg" viewBox="0 0 307.56 207.76">
  <defs>
    <style>
      .cls-1 {
        fill: none;
        stroke: #5d2bf4;
        stroke-linecap: round;
        stroke-linejoin: round;
        stroke-width: 8px;
      }
    </style>
  </defs>
  <g id="OBJECTS">
    <g>
      <g>
        <circle class="cls-1" cx="48.87" cy="31.56" r="27.56"/>
        <circle class="cls-1" cx="118.58" cy="31.56" r="27.56"/>
        <circle class="cls-1" cx="188.29" cy="31.56" r="27.56"/>
      </g>
      <circle class="cls-1" cx="258" cy="31.56" r="27.56"/>
      <path class="cls-1" d="M303.56,203.76v-87.16c0-24.97-20.24-45.22-45.22-45.22s-45.22,20.24-45.22,45.22v76.8c0,5.72,4.64,10.36,10.36,10.36s10.36-4.64,10.36-10.36v-76.8c0-24.97-20.24-45.22-45.22-45.22s-45.22,20.24-45.22,45.22v76.8c0,5.72,4.64,10.36,10.36,10.36s10.36-4.64,10.36-10.36v-76.8c0-24.97-20.24-45.22-45.22-45.22s-45.22,20.24-45.22,45.22v76.8c0,5.72,4.64,10.36,10.36,10.36s10.36-4.64,10.36-10.36v-76.8c0-24.97-20.24-45.22-45.22-45.22S4,91.63,4,116.6v87.16"/>
    </g>
  </g>
</svg>