<?xml version="1.0" encoding="UTF-8"?>
<svg id="Layer_2" data-name="Layer 2" xmlns="http://www.w3.org/2000/svg" viewBox="0 0 264.72 140.88">
  <defs>
    <style>
      .cls-1 {
        fill: #9bf57f;
      }

      .cls-1, .cls-2 {
        stroke-width: 0px;
      }

      .cls-2 {
        fill: #2b2b2b;
      }
    </style>
  </defs>
  <g id="Layer_2-2" data-name="Layer 2">
    <g>
      <path class="cls-1" d="M239.08,120.28h6.12c9.09,0,14.88-1.88,17.72-5.74,1.82-2.48,1.8-4.92,1.6-6.25.06-3.93.42-30.47,0-42.86-.42-12.27-19.05-28.4-37.22-42.55-1.02-.8-1.87-1.46-2.51-1.97-6.95-5.56-12-5.7-13.9-5.49h-19.4v-3.14c0-6.77-5.51-12.28-12.28-12.28h-88.9c-6.77,0-12.28,5.51-12.28,12.28v95.71c0,6.77,5.51,12.28,12.28,12.28h113.62M176.26,111.58h-85.95c-1.98,0-3.59-1.61-3.59-3.59V12.28c0-1.98,1.61-3.59,3.59-3.59h88.9c1.98,0,3.59,1.61,3.59,3.59v95.71c0,1.98-1.61,3.59-3.59,3.59h-2.95ZM205.06,111.58h-14.11c.35-1.14.54-2.34.54-3.59V24.11h19.69l.22.16.59-.22c.62.02,3.22.32,7.36,3.64.66.53,1.54,1.22,2.6,2.04,22.25,17.33,33.65,29.44,33.87,35.99.44,12.89,0,42.58,0,42.87v.7s.04.15.04.15c-.42.44-2.58,2.13-10.66,2.13h-5.9"/>
      <circle class="cls-2" cx="119.41" cy="115.78" r="14.97"/>
      <circle class="cls-2" cx="223.49" cy="115.78" r="14.97"/>
      <path class="cls-1" d="M120.46,102.77c7.63,0,13.83,6.21,13.83,13.83s-6.21,13.83-13.83,13.83-13.83-6.21-13.83-13.83,6.21-13.83,13.83-13.83M120.46,92.34c-13.4,0-24.27,10.86-24.27,24.27s10.86,24.27,24.27,24.27,24.27-10.86,24.27-24.27-10.86-24.27-24.27-24.27h0Z"/>
      <path class="cls-1" d="M223.49,102.77c7.63,0,13.83,6.21,13.83,13.83s-6.21,13.83-13.83,13.83-13.83-6.21-13.83-13.83,6.21-13.83,13.83-13.83M223.49,92.34c-13.4,0-24.27,10.86-24.27,24.27s10.86,24.27,24.27,24.27,24.27-10.86,24.27-24.27-10.86-24.27-24.27-24.27h0Z"/>
      <g>
        <path class="cls-1" d="M66.03,118.91H4.35c-2.4,0-4.35-1.95-4.35-4.35s1.95-4.35,4.35-4.35h61.69c2.4,0,4.35,1.95,4.35,4.35s-1.95,4.35-4.35,4.35Z"/>
        <path class="cls-1" d="M66.03,94.42H19.32c-2.4,0-4.35-1.95-4.35-4.35s1.95-4.35,4.35-4.35h46.72c2.4,0,4.35,1.95,4.35,4.35s-1.95,4.35-4.35,4.35Z"/>
        <path class="cls-1" d="M66.03,69.93h-30.84c-2.4,0-4.35-1.95-4.35-4.35s1.95-4.35,4.35-4.35h30.84c2.4,0,4.35,1.95,4.35,4.35s-1.95,4.35-4.35,4.35Z"/>
      </g>
    </g>
  </g>
</svg>