<?xml version="1.0" encoding="UTF-8"?>
<svg id="Layer_2" data-name="Layer 2" xmlns="http://www.w3.org/2000/svg" viewBox="0 0 142.96 158.89">
  <defs>
    <style>
      .cls-1 {
        fill: #9bf57f;
        stroke-width: 0px;
      }
    </style>
  </defs>
  <g id="Layer_2-2" data-name="Layer 2">
    <g>
      <path class="cls-1" d="M74.57,0c3.24.6,6.54.98,9.71,1.85,11.6,3.19,20.65,9.97,27.21,20.02,4.76,7.3,7.28,15.35,7.54,24.08.01.36.05.72.09,1.08.02.15.09.29.21.65,2.3,0,4.66.02,7.02,0,1.91-.02,3.71.32,5.28,1.45,2.32,1.66,3.39,4,3.4,6.79.03,7.71.05,15.41,0,23.12-.03,4.74-2.97,7.94-7.67,8.28-2.78.2-5.58.1-8.37.03-2.39-.05-4.36-1.12-6.02-3.17-.23.74-.41,1.25-.54,1.76-2.54,9.73-6.98,18.44-14.15,25.59-8.29,8.27-18.21,12.63-30.05,11.61-8.94-.77-16.49-4.76-22.9-10.94-7.21-6.96-11.81-15.45-14.51-25.04-.23-.8-.61-1.56-1.03-2.63-2.44,2.76-5.4,2.96-8.46,2.88-1.96-.06-3.94.07-5.89-.11-4.48-.4-7.43-3.45-7.5-7.96-.11-7.86-.1-15.72,0-23.58.06-4.75,3.3-7.9,8.05-8.06,2.53-.08,5.06-.01,7.74-.01.19-2.14.27-4.2.57-6.22,2.68-17.71,12.33-30.2,28.52-37.64,4.52-2.08,9.38-3.18,14.36-3.6.4-.03.8-.15,1.2-.23,2.07,0,4.14,0,6.21,0ZM41.57,93.43c2.7,5.9,6.51,11.16,11.74,15.36,9.81,7.88,22.66,8.77,32.97,2.32,7.96-4.97,13.15-12.17,16.47-20.76,4.85-12.54,5.16-25.33,1.2-38.14-2.78-8.98-7.54-16.76-15.22-22.46-6.42-4.76-13.61-6.87-21.6-5.56-8.87,1.45-15.64,6.38-20.77,13.49-9.4,13.03-11.69,27.63-8.86,43.21.1.53.52,1.19.98,1.42,3.07,1.58,6.09,3.29,9.3,4.52,7.49,2.86,15.28,4.32,23.31,4.5,2.65.06,4.43,1.87,4.35,4.09-.08,2.32-2.01,4.06-4.71,3.82-4.78-.43-9.59-.81-14.28-1.76-5.03-1.02-9.93-2.68-14.89-4.06ZM111.05,47.93c-.33-15.07-6.59-26.97-19.71-34.5-14.22-8.15-28.64-7.47-42.3,1.56-12.78,8.45-17.79,22.89-17.05,33.18.3-.77.51-1.33.73-1.9,3.57-9.02,8.77-16.89,16.65-22.68,11.29-8.3,23.54-10.16,36.54-4.52,9.42,4.09,16.08,11.25,20.97,20.13,1.55,2.82,2.79,5.81,4.18,8.73ZM15.99,55.65v23.71h7.67v-23.71h-7.67ZM126.96,55.71h-7.71v23.61h7.71v-23.61Z"/>
      <path class="cls-1" d="M47.12,121.91c-4.25,1.91-8.39,3.75-12.52,5.63-6.58,2.99-13.16,5.97-19.7,9.04-1.58.74-3.04,1.76-4.46,2.77-2.15,1.52-3.04,3.64-2.33,6.23.76,2.75,2.55,4.57,5.37,5.22.79.18,1.64.17,2.47.17,37.02,0,74.04,0,111.06.03,3.46,0,6.02-1.23,7.49-4.41,1.18-2.55.66-5.36-1.66-6.93-2.72-1.85-5.59-3.54-8.57-4.92-8.94-4.15-17.97-8.12-26.96-12.17-.46-.21-.92-.44-1.45-.69,2.12-1.79,4.14-3.54,6.22-5.21.25-.2.88-.14,1.23.01,9.78,4.43,19.56,8.86,29.3,13.37,1.63.75,3.12,1.83,4.6,2.86,7.77,5.41,7.27,15.98.94,21.81-2.92,2.7-6.34,4.15-10.38,4.15-37.54-.01-75.08,0-112.61-.01-9.66,0-16.89-8.96-14.79-18.25.81-3.6,2.94-6.32,6.03-8.1,4.28-2.47,8.68-4.78,13.15-6.89,6.49-3.05,13.11-5.83,19.65-8.79.93-.42,1.51-.42,2.29.31,1.74,1.61,3.62,3.07,5.63,4.76Z"/>
    </g>
  </g>
</svg>