<?xml version="1.0" encoding="UTF-8"?>
<svg id="Layer_2" data-name="Layer 2" xmlns="http://www.w3.org/2000/svg" viewBox="0 0 551.89 172.02">
  <defs>
    <style>
      .cls-1 {
        fill: #ffe448;
      }

      .cls-1, .cls-2, .cls-3, .cls-4, .cls-5 {
        stroke-width: 0px;
      }

      .cls-2 {
        fill: #ff7639;
      }

      .cls-3 {
        fill: #9df77f;
      }

      .cls-4 {
        fill: #0091f4;
      }

      .cls-5 {
        fill: #fff;
      }
    </style>
  </defs>
  <g id="Layer_2-2" data-name="Layer 2">
    <g>
      <g>
        <path class="cls-5" d="M224.97,79.34V14.27h6.6c2.78,0,5.03-2.25,5.03-5.03v-2.14c0-2.78-2.25-5.03-5.03-5.03h-46.04c-2.78,0-5.03,2.25-5.03,5.03v2.14c0,2.78,2.25,5.03,5.03,5.03h5.64v65.44c-18.13,7.08-30.41,24.71-30.41,44.52,0,26.35,21.44,47.79,47.79,47.79s47.79-21.44,47.79-47.79c0-20.31-12.66-38.09-31.37-44.89ZM208.56,165.46c-22.77,0-41.22-18.46-41.22-41.22,0-19.02,12.89-35.03,30.41-39.78V14.27h20.66v69.93c18.01,4.42,31.37,20.66,31.37,40.03,0,22.77-18.46,41.22-41.22,41.22Z"/>
        <path class="cls-2" d="M237.25,105.49h-57.4c-3.45,5.34-5.46,11.7-5.46,18.53,0,18.86,15.29,34.15,34.15,34.15s34.15-15.29,34.15-34.15c0-6.83-2-13.19-5.46-18.53Z"/>
      </g>
      <g>
        <g>
          <path class="cls-5" d="M546.15,0h-108.99c-3.16,0-5.74,2.58-5.74,5.74v9.13c0,3.16,2.58,5.74,5.74,5.74h2.29c-.34,1.52-.52,3.09-.52,4.71v124.89c0,12.02,9.78,21.8,21.8,21.8h61.86c12.02,0,21.8-9.78,21.8-21.8V25.33c0-1.62-.18-3.19-.52-4.71h2.29c3.16,0,5.74-2.58,5.74-5.74V5.74c0-3.16-2.58-5.74-5.74-5.74ZM537.6,25.33v124.89c0,8.3-6.73,15.02-15.02,15.02h-61.86c-8.3,0-15.02-6.73-15.02-15.02V25.33c0-1.65.27-3.23.77-4.71h90.37c.49,1.48.77,3.07.77,4.71Z"/>
          <g>
            <rect class="cls-5" x="512.76" y="25.92" width="21.9" height="5.11" rx="2.11" ry="2.11"/>
            <rect class="cls-5" x="518.56" y="37.34" width="16.1" height="5.11" rx="2.11" ry="2.11"/>
            <rect class="cls-5" x="518.56" y="60.19" width="16.1" height="5.11" rx="2.11" ry="2.11"/>
            <rect class="cls-5" x="512.76" y="48.77" width="21.9" height="5.11" rx="2.11" ry="2.11"/>
          </g>
        </g>
        <path class="cls-1" d="M459.52,75.21h64.26v58.35c0,9.85-8,17.85-17.85,17.85h-28.57c-9.85,0-17.85-8-17.85-17.85v-58.35h0Z"/>
      </g>
      <g>
        <path class="cls-5" d="M131.71,146.54l-43.25-74.91V14.57h2.65c2.55,0,4.64-2.09,4.64-4.64s-2.09-4.64-4.64-4.64h-49.18c-2.55,0-4.64,2.09-4.64,4.64s2.09,4.64,4.64,4.64h2.65v58.76L2.3,146.54c-3.07,5.32-3.07,11.67,0,16.99,3.07,5.32,8.57,8.5,14.71,8.5h99.99c6.13,0,11.64-3.18,14.71-8.5,3.07-5.32,3.07-11.67,0-16.99ZM117,164.91H17.01c-7.6,0-12.35-8.23-8.54-14.81l38.16-66.11,4.58-7.93V14.57h30.62v59.8l5.56,9.62,38.16,66.11c3.8,6.58-.95,14.81-8.54,14.81Z"/>
        <path class="cls-4" d="M110.77,147.74l-26.38-45.69h-35.76l-26.38,45.69c-1.64,2.84.41,6.38,3.68,6.38h81.14c3.27,0,5.32-3.54,3.68-6.38Z"/>
      </g>
      <g>
        <path class="cls-5" d="M369.89,48.55v-26.4h4.67c2.67,0,4.85-2.18,4.85-4.85h0c0-2.67-2.18-4.85-4.85-4.85h-50.52c-2.67,0-4.85,2.18-4.85,4.85h0c0,2.67,2.18,4.85,4.85,4.85h4.67v26.95c-24.42,8.79-41.93,32.19-41.93,59.6,0,34.91,28.41,63.32,63.32,63.32s63.32-28.41,63.32-63.32c0-28.01-18.28-51.83-43.54-60.15ZM350.1,165.7c-31.48,0-57-25.52-57-57,0-23.91,14.73-44.39,35.61-52.85,1.8-.73,3.64-1.37,5.53-1.91v-31.78h30.11v31.34c1.89.49,3.73,1.07,5.53,1.74,21.73,8.04,37.21,28.95,37.21,53.47,0,31.48-25.52,57-57,57Z"/>
        <path class="cls-3" d="M385.8,80.51h-73c-5.73,7.63-9.12,17.1-9.12,27.38,0,25.2,20.43,45.62,45.62,45.62s45.62-20.43,45.62-45.62c0-10.27-3.39-19.75-9.12-27.38Z"/>
      </g>
    </g>
  </g>
</svg>