<?xml version="1.0" encoding="UTF-8"?>
<svg id="Layer_2" data-name="Layer 2" xmlns="http://www.w3.org/2000/svg" viewBox="0 0 65.78 81.84">
  <defs>
    <style>
      .cls-1 {
        fill: #fff;
        stroke-width: 0px;
      }
    </style>
  </defs>
  <g id="Layer_2-2" data-name="Layer 2">
    <g>
      <path class="cls-1" d="M64.65,69.33l-21.23-36.77V4.55h1.3c1.25,0,2.28-1.02,2.28-2.28s-1.02-2.28-2.28-2.28h-24.14c-1.25,0-2.28,1.02-2.28,2.28s1.02,2.28,2.28,2.28h1.3v28.84L1.13,69.33c-1.51,2.61-1.51,5.73,0,8.34,1.51,2.61,4.21,4.17,7.22,4.17h49.08c3.01,0,5.71-1.56,7.22-4.17,1.51-2.61,1.51-5.73,0-8.34ZM57.43,78.35H8.35c-3.73,0-6.06-4.04-4.19-7.27l18.73-32.45,2.25-3.89V4.55h15.03v29.35l2.73,4.72,18.73,32.45c1.87,3.23-.47,7.27-4.19,7.27Z"/>
      <path class="cls-1" d="M54.37,69.92l-12.95-22.42h-17.55l-12.95,22.42c-.8,1.39.2,3.13,1.81,3.13h39.83c1.61,0,2.61-1.74,1.81-3.13Z"/>
    </g>
  </g>
</svg>