<?xml version="1.0" encoding="UTF-8"?>
<svg id="Layer_2" data-name="Layer 2" xmlns="http://www.w3.org/2000/svg" viewBox="0 0 95.58 169.96">
  <defs>
    <style>
      .cls-1 {
        fill: #fff;
        stroke-width: 0px;
      }
    </style>
  </defs>
  <g id="Layer_2-2" data-name="Layer 2">
    <g>
      <path class="cls-1" d="M64.21,77.28V12.21h6.6c2.78,0,5.03-2.25,5.03-5.03v-2.14c0-2.78-2.25-5.03-5.03-5.03H24.77c-2.78,0-5.03,2.25-5.03,5.03v2.14c0,2.78,2.25,5.03,5.03,5.03h5.64v65.44C12.28,84.73,0,102.36,0,122.17c0,26.35,21.44,47.79,47.79,47.79s47.79-21.44,47.79-47.79c0-20.31-12.66-38.09-31.37-44.89ZM47.79,163.39c-22.77,0-41.22-18.46-41.22-41.22,0-19.02,12.89-35.03,30.41-39.78V12.21h20.66v69.93c18.01,4.42,31.37,20.66,31.37,40.03,0,22.77-18.46,41.22-41.22,41.22Z"/>
      <path class="cls-1" d="M76.49,103.43H19.09c-3.45,5.34-5.46,11.7-5.46,18.53,0,18.86,15.29,34.15,34.15,34.15s34.15-15.29,34.15-34.15c0-6.83-2-13.19-5.46-18.53Z"/>
    </g>
  </g>
</svg>