<?xml version="1.0" encoding="UTF-8"?>
<svg id="Layer_2" data-name="Layer 2" xmlns="http://www.w3.org/2000/svg" viewBox="0 0 67.72 67.72">
  <defs>
    <style>
      .cls-1 {
        fill: #fff;
        stroke-width: 0px;
      }
    </style>
  </defs>
  <g id="Layer_2-2" data-name="Layer 2">
    <g>
      <path class="cls-1" d="M33.86,67.72c-1.11,0-2.15-.43-2.93-1.21L1.21,36.79c-1.62-1.62-1.62-4.24,0-5.86L30.93,1.21c.78-.78,1.82-1.21,2.93-1.21s2.15.43,2.93,1.21l29.72,29.72c.78.78,1.21,1.82,1.21,2.93s-.43,2.15-1.21,2.93l-29.72,29.72c-.78.78-1.82,1.21-2.93,1.21ZM33.86,3.23c-.24,0-.47.1-.64.27L3.5,33.22c-.35.35-.35.93,0,1.29l29.72,29.72c.34.34.94.34,1.29,0l29.72-29.72c.17-.17.27-.4.27-.64s-.09-.47-.27-.64L34.5,3.5c-.17-.17-.4-.27-.64-.27Z"/>
      <g>
        <path class="cls-1" d="M36.85,33.78s.05.08.04.11c-.66,2.09-2.3,3.46-4.35,3.48-.17,0-.34-.01-.51,0-.41.04-.72.35-.75.73-.02.34.23.71.61.79.26.06.55.07.82.04,2.81-.22,4.59-1.76,5.58-4.32.11-.29.21-.59.34-.96.59,0,1.18-.02,1.77,0,.77.03,1.46-.17,2.08-.64.17-.13.42-.19.64-.19,2.23-.01,4.45,0,6.68,0,.08,0,.17,0,.25.01.58.07.94.44.96.99.02.55-.38,1.01-.96,1.08-.21.03-.42.02-.64.02-2.21,0-4.41,0-6.62,0-.17,0-.34-.01-.51.01-.41.06-.72.39-.72.76,0,.37.31.72.71.77.17.02.34.01.51.01,2.76,0,5.51,0,8.27,0,.3,0,.64.08.89.23.4.23.53.68.4,1.11-.13.42-.41.69-.86.75-.23.03-.47.02-.7.02-2.88,0-5.77,0-8.65,0-.21,0-.43-.01-.63.02-.42.07-.7.41-.69.79.01.38.32.7.73.75.19.02.38.01.57.01,2.46,0,4.92,0,7.38,0,.19,0,.38-.01.57.01.54.08.89.46.92.97.03.55-.29.98-.85,1.1-.2.04-.42.04-.63.04-2.91,0-5.81,0-8.72,0-.19,0-.38,0-.57.02-.38.05-.67.37-.69.72-.02.35.24.7.62.78.2.05.42.04.63.04,1.72,0,3.44,0,5.15,0,.21,0,.43,0,.63.04.55.1.87.55.83,1.1-.04.51-.42.9-.94.96-.15.02-.3,0-.44,0-.85,0-1.7.03-2.54,0-2.02-.07-4.02.19-6.02.46-2.21.3-4.43.47-6.64-.08-1.2-.3-2.28-.79-3.03-1.84-.09-.12-.19-.24-.24-.37-.23-.69-.71-.88-1.42-.87-5.07.03-4.49.02-9.56.02-.13,0-.26,0-.38,0-.58-.04-.91-.35-.92-.92-.01-2.12-.02-4.24,0-6.35,0-.29.15-.6.29-.86.06-.11.28-.18.43-.19.42-.03.85-.02,1.27-.03,1.44,0-.78,0,.67-.01.31,0,.55.06.8.29,1.67,1.54,3.8,1.53,5.48-.01.22-.2.44-.29.74-.29,1.02.01.05,0,1.07.01.49,0,.88-.13,1.25-.49.98-.97,2-1.9,2.99-2.85,1.29-1.24,2.82-1.84,4.6-1.81,1.84.04,3.69.08,5.53.12.23,0,.47.03.69.1.47.15.75.6.72,1.08-.04.52-.4.92-.91.99-.17.02-.34,0-.51.01-1.48.06-2.96.12-4.44.19-.25.01-.5.08-.75.15-.52.15-.77.56-.64,1,.12.41.52.61,1.02.52.38-.07.75-.13,1.13-.19.03,0,.07.02.11.04Z"/>
        <path class="cls-1" d="M45.39,24.24c-.04,1.98-1.77,3.44-3.73,3.13-3.91-.64-7.81-1.29-11.72-1.93-.23-.04-.47-.03-.69-.09-.4-.12-.72-.1-1.03.24-.11.12-.35.18-.52.16-.4-.03-.8-.1-1.19-.21-.45-.12-.64-.46-.56-.99.15-.98.31-1.96.47-2.94.16-.96.32-1.92.48-2.88.12-.72.49-.97,1.2-.83.21.04.41.09.62.12.36.04.66.19.8.54.1.27.31.32.54.36,2.47.4,4.93.79,7.4,1.2,1.8.3,3.6.57,5.38.92,1.57.31,2.56,1.63,2.53,3.2ZM29.38,20.3c-.19,1.16-.38,2.24-.58,3.44,3.13-.63,6.14-1.21,9.13-1.84,0-.07,0-.13,0-.2-2.82-.46-5.64-.92-8.55-1.4Z"/>
        <path class="cls-1" d="M19.5,31.7c.04-.85.45-1.57.87-2.29.07-.11.97-1.47,1.06-1.49.1-.03.3.05.37.15.69,1.04,1.42,2.07,1.69,3.31.18.8-.1,1.48-.73,1.97-.66.51-1.41.59-2.16.21-.74-.38-1.13-1-1.1-1.86Z"/>
        <path class="cls-1" d="M19.26,25.29s0-.05,0-.06c.36-.81.07-1.56-.18-2.33-.19-.61-.08-1.22.11-1.8.16-.48.59-.72.98-.58.38.14.56.51.38,1-.2.56-.14,1.06.09,1.59.36.84.33,1.69-.07,2.51-.16.33-.48.46-.79.38-.32-.08-.52-.35-.52-.7Z"/>
        <path class="cls-1" d="M22.91,20.48c.59,0,1,.45.84.86-.26.69-.14,1.3.1,1.96.27.73.23,1.5-.09,2.23-.21.48-.73.63-1.1.35-.29-.22-.37-.51-.23-.84.24-.57.16-1.1-.07-1.65-.3-.75-.29-1.53-.02-2.29.12-.33.32-.6.56-.6Z"/>
      </g>
    </g>
  </g>
</svg>