<?xml version="1.0" encoding="UTF-8"?>
<svg id="Layer_2" data-name="Layer 2" xmlns="http://www.w3.org/2000/svg" viewBox="0 0 67.72 67.72">
  <defs>
    <style>
      .cls-1 {
        fill: #fff;
        stroke-width: 0px;
      }
    </style>
  </defs>
  <g id="Layer_2-2" data-name="Layer 2">
    <g>
      <path class="cls-1" d="M22.71,34.27c1.85-.67,3.68-1.34,5.51-1.99.34-.12.49-.28.51-.64.04-.68.14-1.36.18-2.04,0-.16-.07-.36-.17-.5-2.22-3.04-3.2-6.48-3.13-10.2.08-3.75,2.7-6.98,6.2-7.82,1.7-.4,3.36-.25,4.85.67,2.98,1.84,4.74,4.47,4.7,8.05-.02,1.88-.57,3.7-1.17,5.49-.51,1.54-1.17,2.99-2.24,4.23-.07.08-.15.21-.15.31,0,.74-.01,1.47.03,2.2,0,.11.22.27.37.31,1.9.62,3.8,1.23,5.7,1.85.16.05.31.12.6.23-.23.19-.38.29-.5.42-.18.2-.36.4-.48.63-.34.64-.61.73-1.24.42-.23.17-.45.34-.72.53-.05.77-.19.66-1,.94-.64.22-1.13-.32-1.7-.05-.1.05-.32-.21-.5-.29-.11-.05-.25-.03-.38-.04.01.12-.02.27.04.35.19.26.25.55,0,.73-.18.12-.52.13-.72.05-.33-.14-.54-.07-.72.21-.21.32-.49.47-.87.32-.38-.15-.48-.44-.44-.83.01-.13-.06-.28-.08-.42-.06-.33-.2-.67-.16-.99.06-.55.1-1.04-.4-1.43-.22-.18-.08-.52.21-.58.12-.03.26,0,.44,0-.12-.69-.24-1.35-.36-2.01,0-.04-.05-.08-.08-.12-.45-.65-.45-.82,0-1.32-.43-1.14-.85-2.26-1.28-3.42-.36.17-.44.48-.27.74.33.5.18.86-.22,1.21.29.67.21,1.24-.4,1.58-.03.41-.06.76-.09,1.2.06.04.19.12.33.2.16.09.44.14.46.25.03.17-.11.37-.23.69.17.45.17,1-.45,1.42-.13.09-.15.36-.18.55-.05.45-.12.91-.1,1.37.02.48-.07.87-.46,1.18-.12.09-.17.27-.28.38-.1.1-.23.23-.35.22-.12,0-.29-.11-.35-.23-.32-.54-1.11-.98-1.68-.87-.08.02-.15.13-.23.19-.56.46-1.23.35-1.63-.25-.09-.13-.28-.19-.4-.29-.42-.37-.97-.43-1.44-.67-.58-.3-1.06-.81-1.59-1.22-.07-.06-.18-.08-.28-.09-.6-.1-.73-.2-1.01-.83Z"/>
      <path class="cls-1" d="M41.95,45.56c-.61.21-1.14.12-1.49-.49-.13.06-.27.17-.39.16-.15-.01-.34-.1-.41-.22-.06-.12-.03-.42.04-.45.36-.16.31-.45.27-.88-.3.1-.57.23-.84.27-.21.03-.54.03-.63-.09-.12-.16-.09-.46-.05-.69.04-.23.17-.44.25-.66-.05-.04-.09-.08-.14-.12-.18.05-.36.13-.55.14-.18.01-.44.02-.54-.08-.09-.11-.03-.36-.01-.54.01-.13.11-.27.09-.39-.13-.67.16-1.01.93-.99.02-.44.13-.83.68-.89.07,0,.1-.24.19-.32.28-.27.54-.62.88-.77.42-.17.91-.17,1.35-.24.3-1.21.6-1.48,1.67-1.53.42-.92.72-1.08,1.41-.92.43-.21.79-.29.99-.51.64-.68,1.23-.14,1.81.03,1.15.33,2.3.67,3.14,1.62.55.63.91,1.3.88,2.17-.04,1.01.01,2.02-.02,3.03,0,.24-.13.53-.3.69-1.69,1.59-3.41,3.15-5.12,4.73-.25.23-.51.5-.84.29-.23-.15-.36-.46-.62-.8-.89-.1-.97-.15-1.29-.98-.72.21-.97.11-1.35-.55Z"/>
      <path class="cls-1" d="M26.72,38.48c.33.32.56.54.85.81.8-.09,1.05.1,1.35.94.12.34.38.66.63.94.22.24.25.44.02.65-.24.23-.24.41-.03.69.11.14.13.47.04.61-.18.26-.44.17-.65-.05-.06-.07-.2-.14-.26-.12-.07.03-.13.16-.15.25-.07.3-.29.58.04.9.09.09,0,.48-.13.63-.11.13-.44.19-.59.12-.17-.08-.28-.34-.39-.54-.1-.18-.15-.38-.23-.58-.09,0-.18.02-.26.03-.05.27-.13.53-.13.8,0,.43-.33.73-.78.62-.35-.09-.52.01-.56.36-.1.92-.52,1.18-1.4.81-.17.68-.56,1.08-1.31,1-.05,0-.1,0-.15.03-.82.37-.83.37-1.43-.24-1.57-1.59-3.15-3.19-4.7-4.8-.14-.15-.24-.41-.24-.62-.02-1.01-.01-2.02-.01-3.03,0-1.19.59-2.04,1.63-2.51,1.04-.47,2.12-.84,3.19-1.25.11-.04.28-.09.34-.04.33.27.73.33,1.11.44.15.04.3.11.46.16.11.04.27.02.34.1.24.27.39.67.68.83.34.18.66.21.73.7.03.19.43.46.67.46.88,0,1.15.17,1.34.9Z"/>
      <path class="cls-1" d="M34.38,53.09c-.15-.59-.28-1.09-.46-1.78-.4-.32-.4-.32-.05-1.09.03-.07,0-.16,0-.24-.05-.46.15-.75.53-.77.38-.02.62.26.61.71,0,.06-.02.12-.03.18.05,0,.1,0,.16,0,0-.24.02-.48,0-.72-.04-.33-.11-.66-.17-.98-.03-.17-.06-.34-.1-.5-.05-.16-.17-.32-.16-.48.03-.35-.07-.61-.27-.91-.3-.43.08-.84.74-.83.06-.2.08-.43.19-.6.22-.36.74-.41,1.07-.08.26.27.42.2.68.01.17-.13.6-.2.67-.11.28.37.71.4,1.07.6.1.06.23.15.25.24.11.52.54.62.94.77.56-.61.58-.61,1.26-.04.05.04.12.07.18.07.73-.06,1.11.33,1.26,1.01.47-.13.86-.04,1.14.37.05.07.21.05.3.11.2.13.48.23.56.42.06.15-.09.45-.24.59-2.15,2-4.32,3.99-6.48,5.98-1.26,1.16-2.51,2.31-3.77,3.47-.11.1-.23.18-.42.34-.05-.22-.14-.39-.09-.49.34-.71-.01-1.45.15-2.16.09-.38.13-.76.22-1.31-.42-.74-.35-1.22.3-1.79Z"/>
      <path class="cls-1" d="M25.85,47.21c.22-.82.46-.97,1.29-.83.59-.63.79-.68,1.37-.39.41-.17.78-.31,1.18-.48,0-.06-.09-.26-.02-.35.16-.21.39-.52.58-.51.48.03.96.21,1.44.33.17.04.34.09.51.08.39-.03.61.24.49.61-.05.17-.04.36-.07.54-.09.61-.02,1.18.22,1.77.08.19-.13.5-.22.79.38.52.35.56-.11,1.11-.14.17-.09.5-.13.75.66.31.95,1.22.65,1.96.66.73.68,1.1.09,1.87.36.91.3,1.31-.34,2.17.28.42.27,1.86,0,2.2-.78-.76-1.57-1.51-2.34-2.28-1.86-1.88-3.72-3.78-5.57-5.67-.63-.65-1.26-1.3-1.91-1.93-.28-.27-.39-.59-.16-.85.2-.22.54-.4.84-.43.23-.02.38-.01.55-.21.43-.49.92-.54,1.68-.22Z"/>
      <path class="cls-1" d="M33.79,48.88c-.2-.09-.34-.12-.44-.2-.26-.19-.28-1.31-.02-1.49.12-.08.43-.1.45-.06.19.42.38.85.47,1.3.02.11-.3.3-.46.44Z"/>
      <path class="cls-1" d="M37.68,43.2c-.09.22-.11.35-.19.42-.22.22-.43.46-.69.62-.12.07-.42.04-.49-.06-.1-.12-.08-.36-.05-.54.04-.18.17-.34.24-.52.13-.32.38-.47.69-.36.2.07.34.3.5.44Z"/>
      <path class="cls-1" d="M36.88,39.98c-.16.16-.26.34-.42.42-.37.19-1.38-.49-1.31-.9.03-.16.29-.42.41-.4.35.05.69.2,1.01.36.13.07.19.29.32.51Z"/>
      <path class="cls-1" d="M33.59,35.38c.25.14.41.17.47.27.09.15.18.37.12.51-.14.36-.29.75-.55,1.01-.17.16-.44-.03-.45-.35,0-.27-.07-.55,0-.79.06-.23.27-.42.42-.65Z"/>
      <path class="cls-1" d="M30.56,41.34c-.24-.14-.37-.21-.5-.29-.13-.08-.28-.14-.38-.25-.12-.14-.2-.33-.3-.49.16-.08.33-.2.5-.21.19-.02.39.07.59.09.35.03.57.24.52.56-.03.21-.27.39-.43.6Z"/>
      <path class="cls-1" d="M30.1,38.84c-.22.13-.43.36-.65.38-.32.02-.57-.25-.46-.58.07-.2.34-.47.52-.47.2,0,.41.27.61.42,0,.08,0,.16,0,.25Z"/>
      <path class="cls-1" d="M32.06,43.84c.19-.14.37-.36.58-.4.3-.06.52.14.54.47.02.35-.19.59-.51.55-.21-.02-.4-.25-.6-.38v-.24Z"/>
      <path class="cls-1" d="M29.64,43.32c.19.27.4.45.38.59-.02.16-.25.29-.39.44-.15-.15-.38-.29-.41-.46-.02-.13.21-.31.42-.57Z"/>
      <path class="cls-1" d="M33.52,38.15c-.3.17-.47.36-.6.33-.14-.03-.3-.26-.32-.41-.01-.1.23-.31.36-.31.15,0,.29.19.56.39Z"/>
      <path class="cls-1" d="M33.86,67.72c-1.11,0-2.15-.43-2.93-1.21L1.21,36.79c-1.62-1.62-1.62-4.24,0-5.86L30.93,1.21c.78-.78,1.82-1.21,2.93-1.21s2.15.43,2.93,1.21l29.72,29.72c.78.78,1.21,1.82,1.21,2.93s-.43,2.15-1.21,2.93l-29.72,29.72c-.78.78-1.82,1.21-2.93,1.21ZM33.86,3.23c-.24,0-.47.1-.64.27L3.5,33.22c-.35.35-.35.93,0,1.29l29.72,29.72c.34.34.94.34,1.29,0l29.72-29.72c.17-.17.27-.4.27-.64s-.09-.47-.27-.64L34.5,3.5c-.17-.17-.4-.27-.64-.27Z"/>
    </g>
  </g>
</svg>