<?xml version="1.0" encoding="UTF-8"?>
<svg id="Layer_2" data-name="Layer 2" xmlns="http://www.w3.org/2000/svg" viewBox="0 0 120.48 172.02">
  <defs>
    <style>
      .cls-1 {
        fill: #fff;
        stroke-width: 0px;
      }
    </style>
  </defs>
  <g id="Layer_2-2" data-name="Layer 2">
    <g>
      <g>
        <path class="cls-1" d="M114.73,0H5.74C2.58,0,0,2.58,0,5.74v9.13c0,3.16,2.58,5.74,5.74,5.74h2.29c-.34,1.52-.52,3.09-.52,4.71v124.89c0,12.02,9.78,21.8,21.8,21.8h61.86c12.02,0,21.8-9.78,21.8-21.8V25.33c0-1.62-.18-3.19-.52-4.71h2.29c3.16,0,5.74-2.58,5.74-5.74V5.74c0-3.16-2.58-5.74-5.74-5.74ZM106.19,25.33v124.89c0,8.3-6.73,15.02-15.02,15.02H29.31c-8.3,0-15.02-6.73-15.02-15.02V25.33c0-1.65.27-3.23.77-4.71h90.37c.49,1.48.77,3.07.77,4.71Z"/>
        <g>
          <rect class="cls-1" x="81.35" y="25.92" width="21.9" height="5.11" rx="2.11" ry="2.11"/>
          <rect class="cls-1" x="87.14" y="37.34" width="16.1" height="5.11" rx="2.11" ry="2.11"/>
          <rect class="cls-1" x="87.14" y="60.19" width="16.1" height="5.11" rx="2.11" ry="2.11"/>
          <rect class="cls-1" x="81.35" y="48.77" width="21.9" height="5.11" rx="2.11" ry="2.11"/>
        </g>
      </g>
      <path class="cls-1" d="M74.52,151.4h-28.57c-9.86,0-17.85-7.99-17.85-17.85v-58.35h64.26v58.35c0,9.86-7.99,17.85-17.85,17.85Z"/>
    </g>
  </g>
</svg>