<?xml version="1.0" encoding="UTF-8"?>
<svg id="Layer_2" data-name="Layer 2" xmlns="http://www.w3.org/2000/svg" viewBox="0 0 67.72 67.72">
  <defs>
    <style>
      .cls-1 {
        fill: #fff;
        stroke-width: 0px;
      }
    </style>
  </defs>
  <g id="Layer_2-2" data-name="Layer 2">
    <g>
      <path class="cls-1" d="M33.86,67.72c-1.11,0-2.15-.43-2.93-1.21L1.21,36.79c-1.62-1.62-1.62-4.24,0-5.86L30.93,1.21c.78-.78,1.82-1.21,2.93-1.21s2.15.43,2.93,1.21l29.72,29.72c.78.78,1.21,1.82,1.21,2.93s-.43,2.15-1.21,2.93l-29.72,29.72c-.78.78-1.82,1.21-2.93,1.21ZM33.86,3.23c-.24,0-.47.1-.64.27L3.5,33.22c-.35.35-.35.93,0,1.29l29.72,29.72c.34.34.94.34,1.29,0l29.72-29.72c.17-.17.27-.4.27-.64s-.09-.47-.27-.64L34.5,3.5c-.17-.17-.4-.27-.64-.27Z"/>
      <path class="cls-1" d="M31.28,48.36c-6.86-3.36-6.15-10.9-4.91-14.31,1.3-3.59,3.01-5.56,3.01-5.56.04,2.21,1.12,3.27,1.12,3.27.34-4.73,4.13-5.97,2.6-12.54,4.75,2.6,9,9.52,9.06,17.43.06,9.37-7.56,11.62-7.67,11.85-1.3-1.75.09-5.51-1.56-5.73-1.65-.23-2.6,2.77-1.65,5.59Z"/>
    </g>
  </g>
</svg>