<?xml version="1.0" encoding="UTF-8"?>
<svg id="Layer_1" data-name="Layer 1" xmlns="http://www.w3.org/2000/svg" version="1.1" viewBox="0 0 342.1 315.8">
  <defs>
    <style>
      .cls-1 {
        fill: #4b00f5;
      }

      .cls-1, .cls-2 {
        stroke-width: 0px;
      }

      .cls-2 {
        fill: #9bf57f;
      }
    </style>
  </defs>
  <path class="cls-2" d="M96.4,119h-10c-1.3,0-2.4.4-3.2,1.2-.8.8-1.2,1.9-1.2,3.2v68.9c0,1.3.4,2.4,1.2,3.2.8.8,1.9,1.2,3.2,1.2h10c1.3,0,2.4-.4,3.2-1.2.8-.8,1.2-1.9,1.2-3.2v-68.9c0-1.3-.4-2.4-1.2-3.2-.8-.8-1.9-1.2-3.2-1.2Z"/>
  <path class="cls-1" d="M248.1,128.8c-7.3-6.5-16.8-9.8-28.2-9.8h-105.8c-1.3,0-2.4.4-3.2,1.2-.8.8-1.2,1.9-1.2,3.2v68.9c0,1.3.4,2.4,1.2,3.2.8.8,1.9,1.2,3.2,1.2h105.8c5.6,0,10.8-.8,15.6-2.5,4.8-1.7,9.1-4.1,12.6-7.2,3.8-3.5,6.8-7.8,8.9-12.9,2.1-5,3.2-10.6,3.2-16.4,0-6-1-11.5-3.1-16.4-2.1-4.9-5.1-9.2-9.1-12.7ZM241.1,157.9c0,14.8-7,22-21.3,22h-91.4s0-44.1,0-44.1h91.4c14.3,0,21.3,7.2,21.3,22Z"/>
  <path class="cls-2" d="M219.8,135.8h-47.4c-5.1,20.1-19.4,36.4-38.3,44.1h85.7c14.3,0,21.3-7.2,21.3-22,0-14.8-7-22-21.3-22Z"/>
</svg>