<?xml version="1.0" encoding="UTF-8"?>
<svg id="Layer_1" data-name="Layer 1" xmlns="http://www.w3.org/2000/svg" version="1.1" viewBox="0 0 231.2 287.6">
  <defs>
    <style>
      .cls-1 {
        fill: #126796;
      }

      .cls-1, .cls-2 {
        stroke-width: 0px;
      }

      .cls-2 {
        fill: #fff;
      }
    </style>
  </defs>
  <path class="cls-2" d="M227.2,243.7l-74.6-129.2V16h4.6c4.4,0,8-3.6,8-8s-3.6-8-8-8h-84.8c-4.4,0-8,3.6-8,8s3.6,8,8,8h4.6v101.4L4,243.7c-5.3,9.2-5.3,20.1,0,29.3,5.3,9.2,14.8,14.7,25.4,14.7h172.5c10.6,0,20.1-5.5,25.4-14.7,5.3-9.2,5.3-20.1,0-29.3ZM201.8,275.3H29.3c-13.1,0-21.3-14.2-14.7-25.6l65.8-114,7.9-13.7V16h52.8v103.2l9.6,16.6,65.8,114c6.6,11.4-1.6,25.6-14.7,25.6Z"/>
  <path class="cls-1" d="M191.1,245.7l-45.5-78.8h-61.7l-45.5,78.8c-2.8,4.9.7,11,6.4,11h140c5.6,0,9.2-6.1,6.4-11Z"/>
</svg>