<?xml version="1.0" encoding="UTF-8"?>
<svg id="Layer_1" data-name="Layer 1" xmlns="http://www.w3.org/2000/svg" version="1.1" viewBox="0 0 218.5 275.3">
  <defs>
    <style>
      .cls-1 {
        fill: #6cd147;
      }

      .cls-1, .cls-2 {
        stroke-width: 0px;
      }

      .cls-2 {
        fill: #fff;
      }
    </style>
  </defs>
  <path class="cls-2" d="M143.4,62.3V16.7h8.1c4.6,0,8.4-3.8,8.4-8.4h0c0-4.6-3.8-8.4-8.4-8.4h-87.1c-4.6,0-8.4,3.8-8.4,8.4h0c0,4.6,3.8,8.4,8.4,8.4h8.1v46.5C30.2,78.4,0,118.7,0,166s49,109.2,109.2,109.2,109.2-49,109.2-109.2-31.5-89.4-75.1-103.8ZM109.2,264.3c-54.3,0-98.3-44-98.3-98.3s25.4-76.6,61.4-91.2c3.1-1.3,6.3-2.4,9.5-3.3V16.7h51.9v54.1c3.3.8,6.4,1.8,9.5,3,37.5,13.9,64.2,49.9,64.2,92.2s-44,98.3-98.3,98.3Z"/>
  <path class="cls-1" d="M170.8,117.4H44.9c-9.9,13.2-15.7,29.5-15.7,47.2,0,43.5,35.2,78.7,78.7,78.7s78.7-35.2,78.7-78.7-5.9-34.1-15.7-47.2Z"/>
</svg>