<?xml version="1.0" encoding="UTF-8"?>
<svg id="Layer_1" data-name="Layer 1" xmlns="http://www.w3.org/2000/svg" version="1.1" viewBox="0 0 207.8 296.7">
  <defs>
    <style>
      .cls-1 {
        fill: #c6aa06;
      }

      .cls-1, .cls-2 {
        stroke-width: 0px;
      }

      .cls-2 {
        fill: #fff;
      }
    </style>
  </defs>
  <g>
    <path class="cls-2" d="M197.9,0H9.9C4.5,0,0,4.5,0,9.9v15.8c0,5.4,4.5,9.9,9.9,9.9h3.9c-.6,2.6-.9,5.3-.9,8.1v215.4c0,20.7,16.9,37.6,37.6,37.6h106.7c20.7,0,37.6-16.9,37.6-37.6V43.7c0-2.8-.3-5.5-.9-8.1h3.9c5.4,0,9.9-4.5,9.9-9.9v-15.8c0-5.4-4.5-9.9-9.9-9.9ZM183.2,43.7v215.4c0,14.3-11.6,25.9-25.9,25.9H50.6c-14.3,0-25.9-11.6-25.9-25.9V43.7c0-2.8.5-5.6,1.3-8.1h155.9c.8,2.6,1.3,5.3,1.3,8.1Z"/>
    <g>
      <rect class="cls-2" x="140.3" y="44.7" width="37.8" height="8.8" rx="4.4" ry="4.4"/>
      <rect class="cls-2" x="150.3" y="64.4" width="27.8" height="8.8" rx="4.4" ry="4.4"/>
      <rect class="cls-2" x="150.3" y="103.8" width="27.8" height="8.8" rx="4.4" ry="4.4"/>
      <rect class="cls-2" x="140.3" y="84.1" width="37.8" height="8.8" rx="4.4" ry="4.4"/>
    </g>
  </g>
  <path class="cls-1" d="M48.5,129.7h110.9v113.6c0,9.8-8,17.8-17.8,17.8h-75.2c-9.8,0-17.8-8-17.8-17.8v-113.6h0Z"/>
</svg>