<?xml version="1.0" encoding="UTF-8"?>
<svg id="Layer_2" data-name="Layer 2" xmlns="http://www.w3.org/2000/svg" viewBox="0 0 126.65 159.57">
  <defs>
    <style>
      .cls-1 {
        fill: #9df77f;
      }

      .cls-1, .cls-2 {
        stroke-width: 0px;
      }

      .cls-2 {
        fill: #fff;
      }
    </style>
  </defs>
  <g id="Layer_2-2" data-name="Layer 2">
    <g>
      <path class="cls-2" d="M83.11,36.09V9.69h4.67c2.67,0,4.85-2.18,4.85-4.85h0c0-2.67-2.18-4.85-4.85-4.85h-50.52c-2.67,0-4.85,2.18-4.85,4.85h0c0,2.67,2.18,4.85,4.85,4.85h4.67v26.95C17.51,45.43,0,68.83,0,96.24c0,34.91,28.41,63.32,63.32,63.32s63.32-28.41,63.32-63.32c0-28.01-18.28-51.83-43.54-60.15ZM63.32,153.24c-31.48,0-57-25.52-57-57,0-23.91,14.73-44.39,35.61-52.85,1.8-.73,3.64-1.37,5.53-1.91V9.7h30.11v31.34c1.89.49,3.73,1.07,5.53,1.74,21.73,8.04,37.21,28.95,37.21,53.47,0,31.48-25.52,57-57,57Z"/>
      <path class="cls-1" d="M99.02,68.05H26.02c-5.73,7.63-9.12,17.1-9.12,27.38,0,25.2,20.43,45.62,45.62,45.62s45.62-20.43,45.62-45.62c0-10.27-3.39-19.75-9.12-27.38Z"/>
    </g>
  </g>
</svg>