<?xml version="1.0" encoding="UTF-8"?>
<svg id="Layer_1" data-name="Layer 1" xmlns="http://www.w3.org/2000/svg" version="1.1" viewBox="0 0 320.7 52.1">
  <defs>
    <style>
      .cls-1 {
        fill: #9bf57f;
      }

      .cls-1, .cls-2 {
        stroke-width: 0px;
      }

      .cls-2 {
        fill: #fff;
      }
    </style>
  </defs>
  <path class="cls-2" d="M92.6,41c-2.7-1.5-4.8-3.6-6.5-6.2-1.6-2.6-2.4-5.5-2.4-8.5s.8-5.8,2.4-8.5c1.6-2.6,3.7-4.7,6.4-6.2,2.7-1.5,5.6-2.3,8.8-2.3s6.2.8,8.9,2.3c2.7,1.5,4.9,3.6,6.5,6.2,1.6,2.7,2.4,5.5,2.4,8.5s-.4,3.9-1.1,5.8c-.7,1.8-1.7,3.5-3,5.1l2,2c.3.4.4.7.4.9s-.2.7-.5,1l-3.1,3c-.3.3-.6.4-1,.4s-.7,0-.9-.4l-2.5-2.6c-2.5,1.3-5.2,1.9-8.1,1.9s-6.1-.8-8.8-2.3h0ZM102.8,34.1c0-.3.2-.7.5-1l3.1-3c.3-.3.6-.4.9-.4s.7.2,1,.5l1.8,1.9c1.2-1.8,1.8-3.8,1.8-5.8s-.5-3.6-1.4-5.2-2.2-2.9-3.8-3.9c-1.7-1-3.5-1.4-5.3-1.4s-3.6.5-5.2,1.4c-1.6,1-2.9,2.3-3.9,3.9s-1.4,3.4-1.4,5.2.5,3.6,1.4,5.2c1,1.6,2.2,2.9,3.9,3.9s3.4,1.5,5.3,1.5,2.1-.2,3.2-.5l-1.3-1.4c-.3-.4-.4-.7-.4-.9h-.2Z"/>
  <path class="cls-2" d="M130.1,41.5c-2.2-1.1-3.9-2.8-5.2-4.8-1.2-2.1-1.8-4.6-1.8-7.3V11.3c0-.4,0-.7.4-1s.6-.4,1-.4h4.4c.4,0,.7.1,1,.4.2.2.4.6.4,1v18.1c0,1.8.4,3.3,1.2,4.5s1.8,2,3.1,2.6c1.1.5,2.2.7,3.4.7s2.4-.3,3.5-.8,2.1-1.3,2.8-2.4c.8-1.1,1.2-2.7,1.2-4.6V11.3c0-.4.1-.7.4-1s.6-.4,1-.4h4.4c.4,0,.7.1,1,.4.2.2.4.6.4,1v18.1c0,2.8-.6,5.2-1.8,7.3s-2.9,3.7-5.1,4.8c-2.2,1.1-4.8,1.7-7.7,1.7s-5.5-.6-7.7-1.7h-.3Z"/>
  <path class="cls-2" d="M164.4,42.3c-.2.2-.6.4-1,.4h-4.4c-.4,0-.7,0-1-.4-.2-.2-.4-.6-.4-1V11.2c0-.4.1-.7.4-1,.2-.2.6-.4,1-.4h4.4c.4,0,.7.1,1,.4.2.2.4.6.4,1v30.1c0,.4-.1.7-.4,1ZM164.5,0s.3,0,.7.2l3.3,1.3c.5.2.8.5.8.9s-.2.6-.6.9l-4.4,3.2c-.5.4-1.1.5-1.7.5h-2.3c-.4,0-.6,0-.8-.2-.2,0-.3-.3-.3-.6s.1-.6.4-.9l3.9-4.8c.3-.4.7-.6,1.1-.6h0Z"/>
  <path class="cls-2" d="M203.7,10.2c.2,0,.4.1.6.3.1.2.2.5.2.9v30c0,.4-.1.7-.4,1-.2.2-.6.4-1,.4h-4.4c-.4,0-.7,0-1-.4-.2-.2-.4-.6-.4-1v-14.3l-9.1,10.5c-.3.4-.6.5-.9.5s-.6-.2-.9-.5l-9.1-10.5v14.3c0,.4-.1.7-.4,1-.2.2-.6.4-1,.4h-4.4c-.4,0-.7,0-1-.4-.2-.2-.4-.6-.4-1V11.4c0-.4,0-.6.2-.9.1-.2.3-.3.6-.3s.6.2.9.5l15.5,17.5,15.5-17.5c.3-.4.6-.5.9-.5h0Z"/>
  <path class="cls-2" d="M216,42.3c-.2.2-.6.4-1,.4h-4.4c-.4,0-.7,0-1-.4-.2-.2-.4-.6-.4-1V11.2c0-.4.1-.7.4-1,.2-.2.6-.4,1-.4h4.4c.4,0,.7.1,1,.4.2.2.4.6.4,1v30.1c0,.4-.1.7-.4,1Z"/>
  <path class="cls-2" d="M246.9,32c.2,0,.4,0,.6,0l4.1,1.6c.6.2.9.6.9,1s0,.5-.3.8c-1.6,2.5-3.8,4.4-6.4,5.8-2.6,1.4-5.4,2-8.4,2s-6.1-.8-8.8-2.3-4.9-3.6-6.5-6.2c-1.6-2.6-2.4-5.5-2.4-8.5s.8-5.8,2.4-8.5c1.6-2.6,3.7-4.7,6.5-6.2,2.7-1.5,5.6-2.3,8.8-2.3s5.7.7,8.3,2.1c2.6,1.4,4.8,3.3,6.4,5.7.2.3.3.5.3.8s-.3.8-.9,1l-4.1,1.6c-.2,0-.4.1-.7.1s-.8-.2-1.2-.6c-1.1-1.3-2.3-2.3-3.8-3.1-1.5-.7-2.9-1.1-4.5-1.1s-3.6.5-5.2,1.4c-1.6,1-2.9,2.3-3.9,3.9s-1.4,3.4-1.4,5.2.5,3.6,1.4,5.2c.9,1.6,2.2,2.9,3.8,3.9s3.4,1.5,5.3,1.5,3.1-.4,4.6-1.1c1.5-.7,2.7-1.8,3.7-3.1.4-.5.7-.7,1.2-.7h.2Z"/>
  <path class="cls-2" d="M263.9,41c-2.7-1.5-4.8-3.6-6.5-6.2-1.6-2.6-2.4-5.5-2.4-8.5s.8-5.8,2.4-8.5c1.6-2.6,3.7-4.7,6.4-6.2,2.7-1.5,5.6-2.3,8.8-2.3s6.2.8,8.9,2.3c2.7,1.5,4.9,3.6,6.5,6.2,1.6,2.7,2.4,5.5,2.4,8.5s-.8,5.9-2.4,8.5-3.7,4.7-6.5,6.2c-2.7,1.5-5.7,2.3-8.9,2.3s-6.1-.8-8.8-2.3h.1ZM267.4,17.1c-1.6,1-2.9,2.3-3.9,3.9s-1.4,3.4-1.4,5.2.5,3.6,1.4,5.2c1,1.6,2.2,2.9,3.9,3.9,1.6,1,3.4,1.5,5.3,1.5s3.6-.5,5.3-1.5c1.6-1,2.9-2.3,3.9-3.9.9-1.6,1.4-3.3,1.4-5.2s-.5-3.6-1.4-5.2-2.2-2.9-3.8-3.9c-1.7-1-3.5-1.4-5.3-1.4s-3.6.5-5.2,1.4h-.2Z"/>
  <path class="cls-2" d="M293.3,38c0-.3.1-.6.3-.9l2.2-3.2c.2-.4.6-.6,1-.6s.6,0,.9.3c1.4,1,3,1.8,4.9,2.4,1.8.6,3.5,1,5,1s3.3-.4,4.4-1.1c1.1-.7,1.7-1.6,1.7-2.6,0-1.5-1.1-2.5-3.4-3.1l-3.9-.8c-2.6-.4-4.7-.9-6.3-1.5-1.7-.6-3.1-1.5-4.5-2.8-1.5-1.4-2.2-3.3-2.2-5.7s1.2-5.8,3.7-7.4c2.4-1.6,5.6-2.5,9.4-2.5s4.5.3,6.3.9c1.9.6,3.7,1.5,5.5,2.7.4.3.6.6.6,1s-.1.6-.3.9l-2.4,3.2c-.3.4-.6.6-1,.6s-.6-.1-.9-.3c-1.3-.8-2.7-1.5-4.1-1.9s-2.8-.7-4.1-.7-2.9.3-4,.8-1.7,1.3-1.7,2.4.3,1.2.9,1.7c.6.4,1.3.8,2.1,1,.6.2,1.8.5,3.5.9l1.6.3c2.8.5,4.9,1.1,6.5,1.7,1.5.6,2.8,1.5,3.9,2.8,1.2,1.4,1.8,3.3,1.8,5.7s-1.2,5.8-3.5,7.5c-2.3,1.8-5.5,2.6-9.6,2.6s-10-1.4-13.8-4.3c-.4-.3-.6-.6-.6-1h.1Z"/>
  <g>
    <path class="cls-1" d="M6.2,10.2H1.9c-.6,0-1,.2-1.4.5-.3.3-.5.8-.5,1.4v29.6c0,.6.2,1,.5,1.4.3.3.8.5,1.4.5h4.3c.6,0,1-.2,1.4-.5.4-.3.5-.8.5-1.4V12.1c0-.6-.2-1-.5-1.4-.3-.3-.8-.5-1.4-.5Z"/>
    <path class="cls-2" d="M71.5,14.4c-3.1-2.8-7.2-4.2-12.1-4.2H13.8c-.6,0-1,.2-1.4.5-.3.3-.5.8-.5,1.4v29.6c0,.6.2,1,.5,1.4.3.3.8.5,1.4.5h45.5c2.4,0,4.7-.4,6.7-1.1,2.1-.7,3.9-1.8,5.4-3.1,1.6-1.5,2.9-3.4,3.8-5.5.9-2.2,1.4-4.5,1.4-7.1s-.4-4.9-1.3-7.1c-.9-2.1-2.2-4-3.9-5.4h0ZM68.5,26.9c0,6.4-3,9.5-9.1,9.5H20v-19h39.3c6.2,0,9.1,3.1,9.1,9.5h0Z"/>
    <path class="cls-1" d="M59.3,17.4h-20.4c-2.2,8.6-8.4,15.7-16.5,19h36.9c6.2,0,9.1-3.1,9.1-9.5s-3-9.5-9.1-9.5Z"/>
  </g>
</svg>